PathFileType	4	(X/Y/Z)	C:\Git\research_data\torsion_deformities_healthy_kinematics\simulations\TD07\pre\static_01\markers.trc
DataRate	CameraRate	NumFrames	NumMarkers	Units	OrigDataRate	OrigDataStartFrame	OrigNumFrames
200.000000	200.000000	4	34	mm	200.000000	105	120
Frame#	Time	C7			T10			CLAV			STRN			RBAK			LASI			RASI			SACR			RT1			RT2			RT3			RKNE			RS1			RS2			RS3			RANK			RHEE			RTOE			RM5D			LT1			LT2			LT3			LKNE			LS1			LS2			LS3			LANK			LHEE			LTOE			LM5D			RANKM			LANKM			RKNEM			LKNEM			
		X1	Y1	Z1	X2	Y2	Z2	X3	Y3	Z3	X4	Y4	Z4	X5	Y5	Z5	X6	Y6	Z6	X7	Y7	Z7	X8	Y8	Z8	X9	Y9	Z9	X10	Y10	Z10	X11	Y11	Z11	X12	Y12	Z12	X13	Y13	Z13	X14	Y14	Z14	X15	Y15	Z15	X16	Y16	Z16	X17	Y17	Z17	X18	Y18	Z18	X19	Y19	Z19	X20	Y20	Z20	X21	Y21	Z21	X22	Y22	Z22	X23	Y23	Z23	X24	Y24	Z24	X25	Y25	Z25	X26	Y26	Z26	X27	Y27	Z27	X28	Y28	Z28	X29	Y29	Z29	X30	Y30	Z30	X31	Y31	Z31	X32	Y32	Z32	X33	Y33	Z33	X34	Y34	Z34	

106	0.525	654.0228271484374	1228.794677734375	347.2195739746093	664.2815551757811	1004.969604492188	344.1473999023437	667.3909301757811	1200.666625976562	220.4868927001953	666.6766967773436	1068.696411132812	151.6513061523437	756.6575927734374	1095.6689453125	357.2079162597656	545.8164672851562	797.7137451171875	207.8273010253906	801.5361938476562	833.08642578125	195.5059356689453	673.926513671875	853.7911987304688	355.4833068847656	864.3215942382812	607.7330322265625	306.8676147460937	862.2388916015625	547.367431640625	335.4623718261718	874.9898681640625	545.8284301757812	285.9716491699218	881.1493530273438	442.5883483886719	297.7647094726562	915.510009765625	350.7734680175782	350.0660095214843	922.064208984375	288.2690429687501	375.6080322265624	937.6768188476562	293.2903747558594	325.5905456542968	962.04150390625	87.46180725097662	321.8882751464843	922.924072265625	45.92649078369146	358.7800903320312	978.8037719726562	47.43782043457037	167.5090789794921	1003.340270996094	34.45078277587897	257.2901916503906	481.5296630859374	615.85498046875	255.5768127441406	472.5380249023437	559.6821899414062	290.9480590820312	480.3760070800781	551.71435546875	240.1435394287109	452.5290222167969	422.023193359375	304.4294738769531	400.7171936035156	310.213623046875	318.5634460449219	386.1308898925781	255.495849609375	353.2082824707031	381.2227478027344	248.7455139160157	302.6007080078125	349.1722412109375	71.262565612793	334.9517517089844	387.2894897460938	43.4145088195801	357.5965881347656	297.8105163574219	42.66972732543947	178.6628265380859	286.3013305664062	29.79470634460451	273.3143310546875	888.1639404296875	74.90476989746099	278.3228759765624	407.3929138183594	67.45404815673831	271.7388610839844	792.2311401367188	404.6977539062501	267.1301574707031	541.8081665039062	383.3451232910157	260.8969421386718	
107	0.53	654.0417480468749	1228.7978515625	347.1927490234374	664.3117675781249	1004.969360351562	344.1156311035156	667.3721313476561	1200.672241210938	220.4634552001953	666.6004638671874	1068.711669921875	151.599868774414	756.6619262695311	1095.63671875	357.1329345703124	545.7833251953125	797.72265625	207.7999725341797	801.498291015625	833.0852661132812	195.3716125488281	673.9627685546875	853.7857666015625	355.4015502929687	864.3074340820312	607.7437744140625	306.7515258789062	862.2672119140625	547.3778076171875	335.3302001953124	874.977294921875	545.8298950195312	285.8647460937499	881.1419677734375	442.5940246582032	297.6895751953124	915.4995727539062	350.7868041992188	349.9899597167968	922.0554809570312	288.3027648925782	375.5586853027343	937.673583984375	293.2941589355469	325.5444335937499	962.0316162109375	87.46505737304693	321.8864440917968	922.9210205078125	45.92680740356451	358.7765197753906	978.8010864257812	47.43121337890631	167.5095672607421	1003.348510742188	34.45149993896491	257.2725830078124	481.5137023925781	615.8591918945312	255.5510101318359	472.5328063964843	559.6859130859375	290.9204406738281	480.3275146484374	551.7319946289062	240.1051940917968	452.5261535644531	422.0251770019531	304.3988647460938	400.7176208496094	310.2156066894531	318.5426635742188	386.1331481933594	255.4959106445313	353.1936340332031	381.222900390625	248.7451629638672	302.58544921875	349.1813049316406	71.26486968994143	334.9478759765625	387.2916564941406	43.41934204101565	357.596435546875	297.8089294433594	42.66953277587893	178.661148071289	286.3031616210938	29.79724884033205	273.3126831054688	888.1558227539062	74.9010848999024	278.3193664550781	407.3961486816406	67.45093536376956	271.7333068847656	792.2219848632812	404.6953430175782	267.0779113769531	541.8016357421875	383.3452453613282	260.8573608398437	
108	0.535	654.0613403320311	1228.800537109375	347.1659545898437	664.3419799804686	1004.968994140625	344.0833740234374	667.3535156249999	1200.677734375	220.4404754638672	666.5234985351561	1068.72705078125	151.5481414794922	756.6661376953124	1095.603393554688	357.0572509765624	545.7498168945312	797.7315673828125	207.771484375	801.4600219726562	833.0841064453125	195.2349853515624	673.9993896484375	853.7801513671875	355.3180847167968	864.2932739257812	607.7545776367188	306.6334838867187	862.2972412109375	547.3882446289062	335.1943664550781	874.964599609375	545.8312377929688	285.7560424804687	881.134521484375	442.5997314453126	297.6130676269531	915.4888305664062	350.8003845214844	349.9124755859374	922.0465087890625	288.3370666503907	375.5085449218749	937.6702880859375	293.2979125976563	325.4974975585937	962.0215454101562	87.46833801269537	321.8846130371093	922.9179077148438	45.92713546752935	358.7728576660156	978.79833984375	47.42449188232428	167.5100555419921	1003.35693359375	34.45222473144538	257.2546691894531	481.4977111816406	615.8633422851562	255.5241394042968	472.5276489257812	559.6896362304688	290.8917846679687	480.2784423828124	551.7498168945312	240.0656433105468	452.5233459472656	422.0271606445312	304.3675231933594	400.7181396484375	310.2176513671875	318.5213928222656	386.1354370117188	255.4959411621094	353.1787109375	381.2231140136719	248.7447967529297	302.56982421875	349.1904602050781	71.26723480224612	334.9439392089844	387.2938232421875	43.4242744445801	357.5963439941406	297.8073425292969	42.66934967041018	178.659423828125	286.3050231933594	29.79984664916994	273.3109741210938	888.1475830078125	74.89733123779303	278.3157348632812	407.3994140625	67.4477462768555	271.7276916503906	792.212890625	404.6929016113282	267.0245666503906	541.795166015625	383.3452148437501	260.8168640136718	
109	0.54	654.0816040039061	1228.802734375	347.1391601562499	664.3723144531249	1004.968505859375	344.0505981445312	667.3350219726561	1200.683227539062	220.4179382324218	666.4457397460936	1068.742309570312	151.4961242675781	756.6702270507811	1095.568969726562	356.9808349609374	545.7160034179688	797.7403564453125	207.7418060302734	801.4212646484375	833.0830078125	195.0960693359374	674.0364990234375	853.7744140625	355.2329101562499	864.2791748046875	607.7655639648438	306.5134582519531	862.3289794921875	547.3988037109375	335.0548400878906	874.9517822265625	545.8326416015625	285.6455383300781	881.1271362304688	442.6054687500001	297.5351562499999	915.4778442382812	350.8141784667969	349.8334960937499	922.0372924804688	288.3719177246094	375.4575805664062	937.6670532226562	293.3016357421876	325.4497680664062	962.0112915039062	87.47163391113287	321.8827819824218	922.9146728515625	45.92746734619146	358.7691040039062	978.7955322265625	47.41765594482428	167.5105285644531	1003.365478515625	34.45295333862311	257.2364807128906	481.4816284179687	615.8673706054688	255.4962005615234	472.5226135253906	559.6932983398438	290.8621215820312	480.2287902832031	551.7677612304688	240.02490234375	452.5206298828125	422.0291137695312	304.3353881835938	400.7187805175781	310.2196960449219	318.4996032714844	386.1377868652344	255.4959259033203	353.1635131835938	381.223388671875	248.7444305419922	302.5538024902344	349.19970703125	71.26965332031253	334.93994140625	387.2959899902344	43.42930221557619	357.5962524414062	297.8057556152344	42.66917800903322	178.6576690673828	286.306884765625	29.80249977111818	273.3092651367188	888.1392211914062	74.89350891113287	278.3119812011718	407.4027099609375	67.44448852539065	271.7219848632812	792.2037353515625	404.6904602050782	266.9700927734374	541.7886962890625	383.3450927734376	260.7754821777343	
